# xmcd
#
# Track frame offsets:
#	150
#	72107
#	93497
#	117811
#	134446
#	152985
#	183903
#	209128
#	226026
#	244405
#
# Disc length: 3560
#
# Revision: 2
# Processed by: cddbd v1.5.1PL0 Copyright (c) Steve Scherf et al.
# Submitted via: EasyCDDAExtractor 7.1.0.1
# Normalized: r1:DSETVAR1
#
DISCID=8c0de60a
DTITLE=Various Artist - smooth2mine
DYEAR=200
DGENRE=R&B
TTITLE0=Young Disciples - Freedom Suite
TTITLE1=Erykah Badu - Next Lifetime
TTITLE2=Ben Harper - Excuse Me Mr.
TTITLE3=Finley Quaye - Rainbow With You
TTITLE4=Morcheeba - World Lookin In
TTITLE5=Fatboy Slim feat. Macy Gray - Demons
TTITLE6=Speech - Clocks In Sync With Mine
TTITLE7=Erykah Badu - On and On
TTITLE8=Van Morrisson - Someone Like You
TTITLE9=Harvest Moon
EXTD=
EXTT0=
EXTT1=
EXTT2=
EXTT3=
EXTT4=
EXTT5=
EXTT6=
EXTT7=
EXTT8=
EXTT9=
PLAYORDER=
